<svg xmlns="http://www.w3.org/2000/svg" version="1.1" xmlns:xlink="http://www.w3.org/1999/xlink" xmlns:svgjs="http://svgjs.dev/svgjs" width="2000" height="1999" viewBox="0 0 2000 1999"><g transform="matrix(1,0,0,1,-0.431486880466764,-0.4312711370263287)"><svg viewBox="0 0 343 343" data-background-color="#fbfbfb" preserveAspectRatio="xMidYMid meet" height="1999" width="2000" xmlns="http://www.w3.org/2000/svg" xmlns:xlink="http://www.w3.org/1999/xlink"><g id="tight-bounds" transform="matrix(1,0,0,1,0.0740000000000407,0.07400000000001228)"><svg viewBox="0 0 342.85155851775386 342.85155851775386" height="342.85155851775386" width="342.85155851775386"><g><svg></svg></g><g><svg viewBox="0 0 342.85155851775386 342.85155851775386" height="342.85155851775386" width="342.85155851775386"><g><path d="M0 171.426c0-94.676 76.75-171.426 171.426-171.426 94.676 0 171.426 76.75 171.426 171.426 0 94.676-76.75 171.426-171.426 171.426-94.676 0-171.426-76.75-171.426-171.426zM171.426 331.552c88.435 0 160.126-71.691 160.126-160.126 0-88.435-71.691-160.126-160.126-160.126-88.435 0-160.126 71.691-160.126 160.126 0 88.435 71.691 160.126 160.126 160.126z" data-fill-palette-color="tertiary" fill="#4790fc" stroke="transparent"></path><ellipse rx="164.56874808852186" ry="164.56874808852186" cx="171.42577925887693" cy="171.42577925887693" fill="#4790fc" stroke="transparent" stroke-width="0" fill-opacity="1" data-fill-palette-color="tertiary"></ellipse></g><g transform="matrix(1,0,0,1,64.84655864529837,108.77509773281447)"><svg viewBox="0 0 213.1584412271571 125.30136305212491" height="125.30136305212491" width="213.1584412271571"><g><svg viewBox="0 0 213.1584412271571 125.30136305212491" height="125.30136305212491" width="213.1584412271571"><g><svg viewBox="0 0 213.1584412271571 125.30136305212491" height="125.30136305212491" width="213.1584412271571"><g><svg viewBox="0 0 213.1584412271571 125.30136305212491" height="125.30136305212491" width="213.1584412271571"><g><svg viewBox="0 0 213.1584412271571 125.30136305212491" height="125.30136305212491" width="213.1584412271571"><g><svg viewBox="0 0 213.1584412271571 125.30136305212491" height="125.30136305212491" width="213.1584412271571"><g transform="matrix(1,0,0,1,0,0)"><svg width="213.1584412271571" viewBox="-0.8500000238418579 -33.400001525878906 58.349998474121094 34.30000305175781" height="125.30136305212491" data-palette-color="#ffffff"><path d="M21.85-11.1Q15.3-10 11.4-9.1L11.4-9.1Q10.2-7.2 9.85-6.55L9.85-6.55Q8.8-4.7 7.98-3.48 7.15-2.25 6.2-1.3L6.2-1.3Q5.15-0.25 4.48 0.2 3.8 0.65 2.9 0.65L2.9 0.65Q1.4 0.65 0.28-0.03-0.85-0.7-0.85-1.4L-0.85-1.4Q-0.75-1.5 0.25-3.63 1.25-5.75 3.95-8.95L3.95-8.95Q3.95-9.35 3.7-9.95 3.45-10.55 3.45-10.65L3.45-10.65Q3.45-12.1 8-14.15L8-14.15Q10.55-17.95 13.38-21.65 16.2-25.35 20.3-30.4L20.3-30.4Q21.3-31.65 22.85-32.45 24.4-33.25 25.95-33.25L25.95-33.25Q27.55-33.25 28.35-32.95 29.15-32.65 29.38-32.15 29.6-31.65 29.6-30.75L29.6-30.75Q29.4-29.25 29.35-28.5L29.35-28.5Q28.6-22.45 28.23-18.13 27.85-13.8 27.85-9.5L27.85-9.5Q27.85-5.55 28.2-2.25L28.2-2.25Q28.05-1.05 27.15-0.08 26.25 0.9 25.05 0.9L25.05 0.9Q22.75 0.9 22.03-0.25 21.3-1.4 21.3-4.15L21.3-4.15Q21.3-6.15 21.85-11.1L21.85-11.1ZM15.35-14.85Q16.25-15.05 18.1-15.3L18.1-15.3 22.1-15.9Q22.55-22.85 23.15-25.9L23.15-25.9Q21.2-23.6 15.35-14.85L15.35-14.85ZM54-33.4Q55.35-33.4 56.37-33.1 57.4-32.8 57.5-32.2L57.5-32.2Q57.5-30.95 55.5-22.55 53.5-14.15 51.8-7.65L51.8-7.65Q50.85-4.05 48.12-1.73 45.4 0.6 40.95 0.6L40.95 0.6Q37.3 0.6 35.17-0.78 33.05-2.15 32.22-4.05 31.4-5.95 31.4-7.8L31.4-7.8Q31.4-10.7 32.12-12.03 32.85-13.35 34.65-13.35L34.65-13.35Q36.4-13.35 37.4-12.88 38.4-12.4 38.4-11.65L38.4-11.65Q38.4-11.15 37.6-10.05L37.6-10.05Q36.75-8.9 36.75-8.4L36.75-8.4Q36.8-6.05 37.82-5.15 38.85-4.25 40.7-4.25L40.7-4.25Q42-4.25 43.22-5.3 44.45-6.35 45.2-9.15L45.2-9.15 50.05-27.9Q46.8-27.35 44.7-26.9L44.7-26.9Q43.7-27.25 43.17-27.98 42.65-28.7 42.65-29.7L42.65-29.7Q42.65-31.15 44.6-32L44.6-32Q48.55-32.8 50.35-33.08 52.15-33.35 54-33.4L54-33.4Z" opacity="1" transform="matrix(1,0,0,1,0,0)" fill="#ffffff" class="undefined-text-0" data-fill-palette-color="quaternary" id="text-0"></path></svg></g></svg></g></svg></g></svg></g><g></g></svg></g></svg></g></svg></g></svg></g><defs></defs></svg><rect width="342.85155851775386" height="342.85155851775386" fill="none" stroke="none" visibility="hidden"></rect></g></svg></g></svg>