<svg xmlns="http://www.w3.org/2000/svg" xmlns:xlink="http://www.w3.org/1999/xlink" width="288" zoomAndPan="magnify" viewBox="0 0 216 72" height="96" preserveAspectRatio="xMidYMid meet" version="1.0"><defs><g/><clipPath id="181c3b5c0e"><path d="M 0.878906 0 L 194 0 L 194 72 L 0.878906 72 Z M 0.878906 0 " clip-rule="nonzero"/></clipPath><clipPath id="bae360ad02"><path d="M 1 0 L 192 0 L 192 72 L 1 72 Z M 1 0 " clip-rule="nonzero"/></clipPath><clipPath id="e0a841654b"><rect x="0" width="194" y="0" height="72"/></clipPath><clipPath id="74a7e1211e"><path d="M 193.226562 31.371094 L 195.972656 31.371094 L 195.972656 34.117188 L 193.226562 34.117188 Z M 193.226562 31.371094 " clip-rule="nonzero"/></clipPath><clipPath id="02744ef505"><path d="M 194.597656 31.371094 C 193.839844 31.371094 193.226562 31.984375 193.226562 32.742188 C 193.226562 33.5 193.839844 34.117188 194.597656 34.117188 C 195.355469 34.117188 195.972656 33.5 195.972656 32.742188 C 195.972656 31.984375 195.355469 31.371094 194.597656 31.371094 Z M 194.597656 31.371094 " clip-rule="nonzero"/></clipPath><clipPath id="7965d01830"><path d="M 0.226562 0.371094 L 2.972656 0.371094 L 2.972656 3.117188 L 0.226562 3.117188 Z M 0.226562 0.371094 " clip-rule="nonzero"/></clipPath><clipPath id="c5f6230f5e"><path d="M 1.597656 0.371094 C 0.839844 0.371094 0.226562 0.984375 0.226562 1.742188 C 0.226562 2.5 0.839844 3.117188 1.597656 3.117188 C 2.355469 3.117188 2.972656 2.5 2.972656 1.742188 C 2.972656 0.984375 2.355469 0.371094 1.597656 0.371094 Z M 1.597656 0.371094 " clip-rule="nonzero"/></clipPath><clipPath id="fcf2e12ea8"><rect x="0" width="3" y="0" height="4"/></clipPath><clipPath id="83bc404d80"><path d="M 199.113281 30.707031 L 201.859375 30.707031 L 201.859375 33.453125 L 199.113281 33.453125 Z M 199.113281 30.707031 " clip-rule="nonzero"/></clipPath><clipPath id="3013ec04f0"><path d="M 200.488281 30.707031 C 199.730469 30.707031 199.113281 31.324219 199.113281 32.082031 C 199.113281 32.839844 199.730469 33.453125 200.488281 33.453125 C 201.246094 33.453125 201.859375 32.839844 201.859375 32.082031 C 201.859375 31.324219 201.246094 30.707031 200.488281 30.707031 Z M 200.488281 30.707031 " clip-rule="nonzero"/></clipPath><clipPath id="71c44e5823"><path d="M 0.113281 0.707031 L 2.859375 0.707031 L 2.859375 3.453125 L 0.113281 3.453125 Z M 0.113281 0.707031 " clip-rule="nonzero"/></clipPath><clipPath id="5244be4e05"><path d="M 1.488281 0.707031 C 0.730469 0.707031 0.113281 1.324219 0.113281 2.082031 C 0.113281 2.839844 0.730469 3.453125 1.488281 3.453125 C 2.246094 3.453125 2.859375 2.839844 2.859375 2.082031 C 2.859375 1.324219 2.246094 0.707031 1.488281 0.707031 Z M 1.488281 0.707031 " clip-rule="nonzero"/></clipPath><clipPath id="3506883da9"><rect x="0" width="3" y="0" height="4"/></clipPath><clipPath id="a97f38c57a"><rect x="0" width="202" y="0" height="72"/></clipPath></defs><g transform="matrix(1, 0, 0, 1, 2, -0.000000000000001479)"><g clip-path="url(#a97f38c57a)"><g clip-path="url(#181c3b5c0e)"><g transform="matrix(1, 0, 0, 1, 0, -0.000000000000001479)"><g clip-path="url(#e0a841654b)"><g clip-path="url(#bae360ad02)"><g fill="#5170ff" fill-opacity="1"><g transform="translate(25.561524, 57.539089)"><g><path d="M 61.515625 -20.96875 C 59.992188 -20.894531 58.476562 -20.738281 56.96875 -20.5 C 56.3125 -20.414062 55.632812 -20.328125 54.9375 -20.234375 C 48.644531 -19.460938 42.363281 -18.507812 36.09375 -17.375 C 35.789062 -17.320312 35.535156 -17.28125 35.328125 -17.25 C 34.984375 -17.21875 34.734375 -17.175781 34.578125 -17.125 C 34.429688 -17.070312 34.320312 -16.960938 34.25 -16.796875 C 34.175781 -16.640625 34.109375 -16.382812 34.046875 -16.03125 C 33.984375 -15.84375 33.914062 -15.59375 33.84375 -15.28125 C 33.175781 -12.84375 32.597656 -10.375 32.109375 -7.875 C 31.773438 -6.257812 31.585938 -4.625 31.546875 -2.96875 C 31.503906 -2.457031 31.535156 -1.96875 31.640625 -1.5 C 31.753906 -1.039062 32.035156 -0.648438 32.484375 -0.328125 C 32.554688 -0.304688 32.585938 -0.257812 32.578125 -0.1875 C 32.578125 -0.125 32.550781 -0.0625 32.5 0 C 32.457031 0.0625 32.40625 0.101562 32.34375 0.125 C 31.445312 0.40625 30.832031 0.160156 30.5 -0.609375 C 30.320312 -1.035156 30.226562 -1.492188 30.21875 -1.984375 C 30.21875 -2.015625 30.21875 -2.039062 30.21875 -2.0625 C 30.144531 -2.894531 30.15625 -3.734375 30.25 -4.578125 C 30.34375 -5.421875 30.457031 -6.273438 30.59375 -7.140625 C 31.082031 -9.703125 31.664062 -12.257812 32.34375 -14.8125 C 32.382812 -14.925781 32.410156 -15.035156 32.421875 -15.140625 C 32.453125 -15.265625 32.488281 -15.394531 32.53125 -15.53125 C 32.59375 -15.707031 32.644531 -15.890625 32.6875 -16.078125 C 32.726562 -16.265625 32.722656 -16.453125 32.671875 -16.640625 C 32.578125 -16.691406 32.484375 -16.71875 32.390625 -16.71875 C 32.304688 -16.71875 32.226562 -16.707031 32.15625 -16.6875 C 32.132812 -16.6875 32.113281 -16.679688 32.09375 -16.671875 C 31.351562 -16.554688 30.613281 -16.425781 29.875 -16.28125 C 29.675781 -16.25 29.460938 -16.21875 29.234375 -16.1875 C 28.960938 -16.132812 28.742188 -16.007812 28.578125 -15.8125 C 28.421875 -15.625 28.273438 -15.398438 28.140625 -15.140625 C 27.953125 -14.816406 27.773438 -14.492188 27.609375 -14.171875 C 26.847656 -12.796875 26.078125 -11.425781 25.296875 -10.0625 C 24.140625 -8.070312 22.90625 -6.140625 21.59375 -4.265625 C 20.28125 -2.390625 18.863281 -0.601562 17.34375 1.09375 C 15.414062 3.289062 13.320312 5.285156 11.0625 7.078125 C 7.59375 9.734375 3.757812 11.34375 -0.4375 11.90625 C -4.382812 12.457031 -8.101562 11.976562 -11.59375 10.46875 C -12.570312 10.03125 -13.472656 9.46875 -14.296875 8.78125 C -14.847656 8.28125 -15.3125 7.722656 -15.6875 7.109375 C -16.0625 6.503906 -16.3125 5.8125 -16.4375 5.03125 C -16.5625 4.09375 -16.488281 3.195312 -16.21875 2.34375 C -15.957031 1.488281 -15.539062 0.679688 -14.96875 -0.078125 C -14.175781 -1.140625 -13.257812 -2.078125 -12.21875 -2.890625 C -11.226562 -3.703125 -10.1875 -4.441406 -9.09375 -5.109375 C -8.007812 -5.785156 -6.90625 -6.410156 -5.78125 -6.984375 C -3.96875 -7.910156 -2.113281 -8.742188 -0.21875 -9.484375 C 1.664062 -10.222656 3.570312 -10.898438 5.5 -11.515625 C 10.070312 -12.929688 14.695312 -14.117188 19.375 -15.078125 C 21.75 -15.617188 24.132812 -16.085938 26.53125 -16.484375 C 27.175781 -16.566406 27.632812 -16.921875 27.90625 -17.546875 C 28.394531 -18.535156 28.882812 -19.53125 29.375 -20.53125 C 30.144531 -22.070312 30.898438 -23.632812 31.640625 -25.21875 C 35.015625 -32.59375 38.1875 -40.054688 41.15625 -47.609375 C 41.40625 -48.242188 41.644531 -48.894531 41.875 -49.5625 C 41.976562 -49.882812 42.09375 -50.210938 42.21875 -50.546875 C 42.351562 -50.984375 42.632812 -51.265625 43.0625 -51.390625 C 43.3125 -51.429688 43.503906 -51.390625 43.640625 -51.265625 C 43.773438 -51.140625 43.816406 -50.957031 43.765625 -50.71875 C 43.710938 -50.519531 43.648438 -50.328125 43.578125 -50.140625 C 43.097656 -48.835938 42.695312 -47.539062 42.375 -46.25 C 42.25 -45.78125 42.128906 -45.328125 42.015625 -44.890625 C 40.859375 -40.679688 39.679688 -36.476562 38.484375 -32.28125 C 37.597656 -29.03125 36.691406 -25.769531 35.765625 -22.5 C 35.503906 -21.53125 35.25 -20.578125 35 -19.640625 C 34.945312 -19.429688 34.882812 -19.234375 34.8125 -19.046875 C 34.8125 -19.003906 34.804688 -18.957031 34.796875 -18.90625 C 34.765625 -18.78125 34.738281 -18.65625 34.71875 -18.53125 C 34.695312 -18.40625 34.726562 -18.285156 34.8125 -18.171875 C 34.945312 -18.097656 35.09375 -18.070312 35.25 -18.09375 C 35.40625 -18.113281 35.546875 -18.132812 35.671875 -18.15625 C 35.785156 -18.1875 35.882812 -18.207031 35.96875 -18.21875 C 36.613281 -18.3125 37.269531 -18.421875 37.9375 -18.546875 C 38.8125 -18.679688 39.703125 -18.816406 40.609375 -18.953125 C 45.484375 -19.648438 50.367188 -20.332031 55.265625 -21 C 56.878906 -21.226562 58.476562 -21.421875 60.0625 -21.578125 C 60.207031 -21.585938 60.359375 -21.601562 60.515625 -21.625 C 60.597656 -21.644531 60.6875 -21.660156 60.78125 -21.671875 C 60.988281 -21.710938 61.191406 -21.726562 61.390625 -21.71875 C 61.597656 -21.707031 61.789062 -21.671875 61.96875 -21.609375 C 62 -21.597656 62.023438 -21.566406 62.046875 -21.515625 C 62.078125 -21.460938 62.085938 -21.421875 62.078125 -21.390625 C 62.078125 -21.335938 62.0625 -21.285156 62.03125 -21.234375 C 62.007812 -21.179688 61.984375 -21.144531 61.953125 -21.125 C 61.816406 -21.050781 61.671875 -21 61.515625 -20.96875 Z M 26.640625 -15.171875 C 26.679688 -15.296875 26.671875 -15.394531 26.609375 -15.46875 C 26.554688 -15.550781 26.476562 -15.585938 26.375 -15.578125 C 26.226562 -15.554688 26.070312 -15.53125 25.90625 -15.5 C 25.8125 -15.476562 25.722656 -15.460938 25.640625 -15.453125 C 19.753906 -14.421875 13.921875 -13.054688 8.140625 -11.359375 C 5.941406 -10.710938 3.757812 -9.984375 1.59375 -9.171875 C -0.570312 -8.367188 -2.691406 -7.453125 -4.765625 -6.421875 C -5.867188 -5.878906 -6.957031 -5.28125 -8.03125 -4.625 C -9.101562 -3.976562 -10.125 -3.253906 -11.09375 -2.453125 C -12.125 -1.617188 -13.03125 -0.675781 -13.8125 0.375 C -14.707031 1.664062 -15.117188 2.953125 -15.046875 4.234375 C -14.984375 5.523438 -14.457031 6.6875 -13.46875 7.71875 C -12.726562 8.4375 -11.894531 9.023438 -10.96875 9.484375 C -7.570312 11.148438 -3.769531 11.660156 0.4375 11.015625 C 1.519531 10.835938 2.738281 10.492188 4.09375 9.984375 C 5.425781 9.472656 6.695312 8.832031 7.90625 8.0625 C 9.113281 7.289062 10.257812 6.429688 11.34375 5.484375 C 14.050781 3.140625 16.484375 0.53125 18.640625 -2.34375 C 20.140625 -4.28125 21.523438 -6.296875 22.796875 -8.390625 C 24.066406 -10.484375 25.285156 -12.597656 26.453125 -14.734375 C 26.515625 -14.898438 26.578125 -15.046875 26.640625 -15.171875 Z M 33.421875 -18.75 C 34.140625 -21.519531 34.890625 -24.285156 35.671875 -27.046875 C 35.703125 -27.179688 35.816406 -27.609375 36.015625 -28.328125 C 36.210938 -29.046875 36.4375 -29.878906 36.6875 -30.828125 C 36.945312 -31.785156 37.179688 -32.679688 37.390625 -33.515625 C 37.609375 -34.359375 37.75 -34.988281 37.8125 -35.40625 C 37.882812 -35.820312 37.835938 -35.851562 37.671875 -35.5 C 37.640625 -35.414062 37.613281 -35.335938 37.59375 -35.265625 C 37.445312 -34.972656 37.304688 -34.671875 37.171875 -34.359375 C 36.109375 -31.921875 35.035156 -29.476562 33.953125 -27.03125 C 32.867188 -24.582031 31.722656 -22.164062 30.515625 -19.78125 C 30.410156 -19.539062 30.300781 -19.296875 30.1875 -19.046875 C 29.945312 -18.585938 29.722656 -18.128906 29.515625 -17.671875 C 29.421875 -17.484375 29.40625 -17.335938 29.46875 -17.234375 C 29.539062 -17.128906 29.671875 -17.09375 29.859375 -17.125 C 30.171875 -17.164062 30.476562 -17.222656 30.78125 -17.296875 C 31.257812 -17.421875 31.734375 -17.519531 32.203125 -17.59375 C 32.578125 -17.632812 32.847656 -17.753906 33.015625 -17.953125 C 33.191406 -18.160156 33.328125 -18.425781 33.421875 -18.75 Z M 33.421875 -18.75 "/></g></g><g transform="translate(62.660094, 51.513401)"><g><path d="M 9.390625 -7.84375 C 9.566406 -7.832031 9.660156 -7.785156 9.671875 -7.703125 C 9.691406 -7.628906 9.703125 -7.59375 9.703125 -7.59375 C 9.566406 -7.226562 9.40625 -6.894531 9.21875 -6.59375 C 8.757812 -5.894531 8.191406 -5.296875 7.515625 -4.796875 C 7.191406 -4.523438 6.800781 -4.347656 6.34375 -4.265625 C 5.3125 -4.078125 4.75 -4.507812 4.65625 -5.5625 C 4.664062 -5.789062 4.6875 -6.015625 4.71875 -6.234375 C 4.738281 -6.335938 4.742188 -6.441406 4.734375 -6.546875 C 4.785156 -6.929688 4.785156 -7.144531 4.734375 -7.1875 C 4.679688 -7.226562 4.570312 -7.101562 4.40625 -6.8125 C 4.375 -6.75 4.335938 -6.6875 4.296875 -6.625 C 4.046875 -6.207031 3.78125 -5.789062 3.5 -5.375 C 3.019531 -4.59375 2.425781 -3.90625 1.71875 -3.3125 C 1.320312 -2.96875 0.863281 -2.742188 0.34375 -2.640625 C -0.488281 -2.460938 -1.019531 -2.769531 -1.25 -3.5625 C -1.34375 -3.882812 -1.378906 -4.210938 -1.359375 -4.546875 C -1.242188 -5.921875 -0.726562 -7.039062 0.1875 -7.90625 C 1.101562 -8.769531 2.238281 -9.210938 3.59375 -9.234375 C 3.988281 -9.179688 4.25 -9.320312 4.375 -9.65625 C 4.425781 -9.789062 4.476562 -9.921875 4.53125 -10.046875 C 4.789062 -10.734375 5.039062 -11.410156 5.28125 -12.078125 C 5.738281 -13.367188 6.191406 -14.671875 6.640625 -15.984375 C 7.023438 -17.015625 7.398438 -18.046875 7.765625 -19.078125 C 7.890625 -19.410156 8.023438 -19.726562 8.171875 -20.03125 C 8.234375 -20.175781 8.320312 -20.269531 8.4375 -20.3125 C 8.5625 -20.363281 8.695312 -20.398438 8.84375 -20.421875 C 8.875 -20.429688 8.910156 -20.4375 8.953125 -20.4375 C 9.109375 -20.46875 9.238281 -20.453125 9.34375 -20.390625 C 9.445312 -20.328125 9.484375 -20.226562 9.453125 -20.09375 C 9.398438 -19.738281 9.328125 -19.40625 9.234375 -19.09375 C 8.742188 -17.53125 8.300781 -15.960938 7.90625 -14.390625 C 7.507812 -12.816406 7.125 -11.234375 6.75 -9.640625 C 6.625 -9.097656 6.503906 -8.550781 6.390625 -8 C 6.234375 -7.363281 6.117188 -6.710938 6.046875 -6.046875 C 6.015625 -5.898438 6.007812 -5.753906 6.03125 -5.609375 C 6.050781 -5.472656 6.140625 -5.367188 6.296875 -5.296875 C 6.398438 -5.265625 6.492188 -5.269531 6.578125 -5.3125 C 6.660156 -5.363281 6.753906 -5.414062 6.859375 -5.46875 C 6.867188 -5.5 6.890625 -5.523438 6.921875 -5.546875 C 7.585938 -6.109375 8.179688 -6.734375 8.703125 -7.421875 C 8.785156 -7.546875 8.875 -7.648438 8.96875 -7.734375 C 9.070312 -7.828125 9.210938 -7.863281 9.390625 -7.84375 Z M 3.484375 -7.65625 C 3.546875 -7.8125 3.546875 -7.953125 3.484375 -8.078125 C 3.429688 -8.203125 3.332031 -8.285156 3.1875 -8.328125 C 2.882812 -8.429688 2.570312 -8.398438 2.25 -8.234375 C 1.488281 -7.859375 0.890625 -7.285156 0.453125 -6.515625 C 0.015625 -5.753906 -0.15625 -4.960938 -0.0625 -4.140625 C -0.0390625 -4.097656 -0.03125 -4.066406 -0.03125 -4.046875 C -0.0195312 -3.984375 -0.0078125 -3.914062 0 -3.84375 C 0.132812 -3.476562 0.378906 -3.441406 0.734375 -3.734375 C 1.097656 -4.035156 1.484375 -4.476562 1.890625 -5.0625 C 2.296875 -5.65625 2.648438 -6.21875 2.953125 -6.75 C 3.265625 -7.28125 3.441406 -7.582031 3.484375 -7.65625 Z M 3.484375 -7.65625 "/></g></g><g transform="translate(72.443818, 49.924291)"><g><path d="M 3.84375 -5.6875 C 3.507812 -5.125 3.085938 -4.585938 2.578125 -4.078125 C 2.078125 -3.578125 1.484375 -3.195312 0.796875 -2.9375 C 0.109375 -2.675781 -0.453125 -2.632812 -0.890625 -2.8125 C -1.335938 -3 -1.503906 -3.539062 -1.390625 -4.4375 C -1.234375 -5.382812 -0.953125 -6.300781 -0.546875 -7.1875 C -0.441406 -7.382812 -0.273438 -7.535156 -0.046875 -7.640625 C 0.117188 -7.710938 0.269531 -7.707031 0.40625 -7.625 C 0.550781 -7.550781 0.625 -7.4375 0.625 -7.28125 C 0.550781 -6.96875 0.460938 -6.660156 0.359375 -6.359375 C 0.265625 -6.066406 0.207031 -5.867188 0.1875 -5.765625 C -0.0078125 -5.234375 -0.117188 -4.6875 -0.140625 -4.125 C -0.0859375 -3.800781 0.328125 -3.84375 1.109375 -4.25 C 1.898438 -4.664062 2.628906 -5.300781 3.296875 -6.15625 C 3.972656 -7.007812 4.316406 -7.285156 4.328125 -6.984375 C 4.347656 -6.679688 4.1875 -6.25 3.84375 -5.6875 Z M 1.171875 -9.28125 C 1.128906 -9.238281 1.050781 -9.1875 0.9375 -9.125 C 0.832031 -9.0625 0.710938 -9.003906 0.578125 -8.953125 C 0.453125 -8.910156 0.34375 -8.914062 0.25 -8.96875 C 0.15625 -9.03125 0.132812 -9.15625 0.1875 -9.34375 C 0.238281 -9.695312 0.316406 -10.003906 0.421875 -10.265625 C 0.523438 -10.523438 0.660156 -10.828125 0.828125 -11.171875 C 0.953125 -11.328125 1.09375 -11.425781 1.25 -11.46875 C 1.40625 -11.507812 1.546875 -11.488281 1.671875 -11.40625 C 1.804688 -11.332031 1.859375 -11.203125 1.828125 -11.015625 C 1.753906 -10.367188 1.535156 -9.789062 1.171875 -9.28125 Z M 1.171875 -9.28125 "/></g></g><g transform="translate(77.007995, 49.182961)"><g><path d="M 6.390625 -6.828125 C 5.546875 -5.441406 4.671875 -4.375 3.765625 -3.625 C 2.867188 -2.875 1.832031 -2.503906 0.65625 -2.515625 C -0.519531 -2.523438 -1.117188 -3.210938 -1.140625 -4.578125 C -1.109375 -5.265625 -1.023438 -5.953125 -0.890625 -6.640625 C -0.523438 -8.234375 -0.15625 -9.816406 0.21875 -11.390625 C 0.332031 -11.953125 0.457031 -12.519531 0.59375 -13.09375 C 0.644531 -13.21875 0.679688 -13.34375 0.703125 -13.46875 C 0.753906 -13.675781 0.804688 -13.890625 0.859375 -14.109375 C 0.921875 -14.472656 0.753906 -14.628906 0.359375 -14.578125 C 0.128906 -14.535156 -0.09375 -14.5 -0.3125 -14.46875 C -0.414062 -14.445312 -0.523438 -14.425781 -0.640625 -14.40625 C -0.753906 -14.375 -0.878906 -14.335938 -1.015625 -14.296875 C -1.203125 -14.253906 -1.394531 -14.21875 -1.59375 -14.1875 C -1.789062 -14.15625 -1.988281 -14.175781 -2.1875 -14.25 C -2.226562 -14.257812 -2.269531 -14.285156 -2.3125 -14.328125 C -2.351562 -14.367188 -2.375 -14.414062 -2.375 -14.46875 C -2.363281 -14.5 -2.34375 -14.535156 -2.3125 -14.578125 C -2.28125 -14.628906 -2.238281 -14.671875 -2.1875 -14.703125 C -2.03125 -14.804688 -1.863281 -14.890625 -1.6875 -14.953125 C -1.195312 -15.046875 -0.722656 -15.132812 -0.265625 -15.21875 C -0.0664062 -15.25 0.0976562 -15.28125 0.234375 -15.3125 C 0.546875 -15.363281 0.773438 -15.410156 0.921875 -15.453125 C 1.078125 -15.492188 1.1875 -15.59375 1.25 -15.75 C 1.320312 -15.90625 1.40625 -16.140625 1.5 -16.453125 C 1.53125 -16.628906 1.578125 -16.816406 1.640625 -17.015625 C 1.816406 -17.609375 1.988281 -18.207031 2.15625 -18.8125 C 2.238281 -19.09375 2.316406 -19.363281 2.390625 -19.625 C 2.460938 -19.875 2.59375 -20.085938 2.78125 -20.265625 C 2.976562 -20.398438 3.171875 -20.421875 3.359375 -20.328125 C 3.398438 -20.304688 3.4375 -20.257812 3.46875 -20.1875 C 3.5 -20.125 3.519531 -20.066406 3.53125 -20.015625 C 3.582031 -19.703125 3.5625 -19.382812 3.46875 -19.0625 C 3.445312 -19 3.421875 -18.921875 3.390625 -18.828125 C 3.335938 -18.535156 3.273438 -18.234375 3.203125 -17.921875 C 3.054688 -17.347656 2.929688 -16.769531 2.828125 -16.1875 C 2.785156 -16.070312 2.796875 -15.976562 2.859375 -15.90625 C 2.921875 -15.84375 3.003906 -15.820312 3.109375 -15.84375 C 3.671875 -15.90625 4.210938 -15.976562 4.734375 -16.0625 C 5.015625 -16.113281 5.285156 -16.160156 5.546875 -16.203125 C 6.410156 -16.335938 6.773438 -16.28125 6.640625 -16.03125 C 6.554688 -15.875 6.441406 -15.773438 6.296875 -15.734375 C 6.160156 -15.691406 6.023438 -15.671875 5.890625 -15.671875 C 5.796875 -15.660156 5.707031 -15.648438 5.625 -15.640625 C 4.757812 -15.429688 3.898438 -15.253906 3.046875 -15.109375 C 2.648438 -15.046875 2.414062 -14.820312 2.34375 -14.4375 C 2.25 -14.0625 2.164062 -13.691406 2.09375 -13.328125 C 1.96875 -12.847656 1.859375 -12.378906 1.765625 -11.921875 C 1.648438 -11.492188 1.539062 -11.0625 1.4375 -10.625 C 1.164062 -9.5 0.910156 -8.375 0.671875 -7.25 C 0.523438 -6.53125 0.4375 -5.796875 0.40625 -5.046875 C 0.289062 -3.691406 0.875 -3.273438 2.15625 -3.796875 C 3.414062 -4.328125 4.632812 -5.492188 5.8125 -7.296875 C 6.363281 -7.796875 6.554688 -7.640625 6.390625 -6.828125 Z M 6.390625 -6.828125 "/></g></g><g transform="translate(83.65531, 48.103279)"><g><path d="M 8.1875 -7.59375 C 8.332031 -7.40625 8.21875 -7.070312 7.84375 -6.59375 C 7.46875 -6.125 6.785156 -5.503906 5.796875 -4.734375 C 5.390625 -4.492188 5.101562 -4.304688 4.9375 -4.171875 C 4.769531 -4.035156 4.65625 -3.882812 4.59375 -3.71875 C 4.53125 -3.550781 4.472656 -3.296875 4.421875 -2.953125 C 4.378906 -2.691406 4.316406 -2.347656 4.234375 -1.921875 C 4.140625 -1.398438 4.046875 -0.851562 3.953125 -0.28125 C 3.773438 0.84375 3.535156 1.972656 3.234375 3.109375 C 2.929688 4.253906 2.46875 5.28125 1.84375 6.1875 C 1.226562 7.09375 0.351562 7.765625 -0.78125 8.203125 C -1.9375 8.628906 -3.078125 8.851562 -4.203125 8.875 C -5.328125 8.894531 -6.46875 8.765625 -7.625 8.484375 C -8.070312 8.359375 -8.5 8.164062 -8.90625 7.90625 C -9.5625 7.40625 -9.707031 6.753906 -9.34375 5.953125 C -9.144531 5.554688 -8.894531 5.1875 -8.59375 4.84375 C -8 4.175781 -7.363281 3.550781 -6.6875 2.96875 C -5.425781 1.90625 -4.125 0.90625 -2.78125 -0.03125 C -1.4375 -0.976562 -0.0664062 -1.898438 1.328125 -2.796875 C 1.398438 -2.859375 1.5 -2.925781 1.625 -3 C 2 -3.257812 2.382812 -3.507812 2.78125 -3.75 C 3.070312 -3.914062 3.238281 -4.15625 3.28125 -4.46875 C 3.300781 -4.570312 3.296875 -4.664062 3.265625 -4.75 C 3.234375 -4.800781 3.195312 -4.820312 3.15625 -4.8125 C 3.113281 -4.8125 3.070312 -4.796875 3.03125 -4.765625 C 2.882812 -4.660156 2.742188 -4.539062 2.609375 -4.40625 C 2.523438 -4.34375 2.445312 -4.269531 2.375 -4.1875 C 1.875 -3.769531 1.332031 -3.535156 0.75 -3.484375 C -0.15625 -3.335938 -0.6875 -3.675781 -0.84375 -4.5 C -0.957031 -5.164062 -0.941406 -5.816406 -0.796875 -6.453125 C -0.660156 -7.097656 -0.40625 -7.722656 -0.03125 -8.328125 C 0.0078125 -8.390625 0.0703125 -8.445312 0.15625 -8.5 C 0.238281 -8.550781 0.316406 -8.585938 0.390625 -8.609375 C 0.410156 -8.609375 0.425781 -8.625 0.4375 -8.65625 C 0.613281 -8.6875 0.753906 -8.660156 0.859375 -8.578125 C 0.972656 -8.492188 1.015625 -8.363281 0.984375 -8.1875 C 0.921875 -7.96875 0.851562 -7.734375 0.78125 -7.484375 C 0.71875 -7.296875 0.664062 -7.113281 0.625 -6.9375 C 0.382812 -6.195312 0.34375 -5.46875 0.5 -4.75 C 0.53125 -4.59375 0.613281 -4.488281 0.75 -4.4375 C 0.882812 -4.394531 1.019531 -4.414062 1.15625 -4.5 C 1.59375 -4.757812 1.953125 -5.097656 2.234375 -5.515625 C 3.023438 -6.503906 3.640625 -7.597656 4.078125 -8.796875 C 4.117188 -8.960938 4.1875 -9.109375 4.28125 -9.234375 C 4.382812 -9.359375 4.53125 -9.445312 4.71875 -9.5 C 4.957031 -9.5625 5.148438 -9.535156 5.296875 -9.421875 C 5.441406 -9.316406 5.507812 -9.148438 5.5 -8.921875 C 5.382812 -8.191406 5.265625 -7.460938 5.140625 -6.734375 C 5.128906 -6.679688 5.117188 -6.628906 5.109375 -6.578125 C 5.066406 -6.410156 5.03125 -6.238281 5 -6.0625 C 4.976562 -5.882812 4.976562 -5.726562 5 -5.59375 C 5.019531 -5.46875 5.085938 -5.414062 5.203125 -5.4375 C 5.609375 -5.582031 6.171875 -6.023438 6.890625 -6.765625 C 7.617188 -7.503906 8.050781 -7.78125 8.1875 -7.59375 Z M 2.8125 -1.90625 C 2.8125 -1.945312 2.816406 -1.984375 2.828125 -2.015625 C 2.867188 -2.109375 2.882812 -2.203125 2.875 -2.296875 C 2.863281 -2.398438 2.816406 -2.503906 2.734375 -2.609375 C 2.679688 -2.597656 2.644531 -2.59375 2.625 -2.59375 C 2.519531 -2.539062 2.425781 -2.492188 2.34375 -2.453125 C 2.175781 -2.347656 2.015625 -2.238281 1.859375 -2.125 C 0.585938 -1.28125 -0.675781 -0.410156 -1.9375 0.484375 C -3.207031 1.378906 -4.4375 2.304688 -5.625 3.265625 C -6.351562 3.859375 -7.019531 4.523438 -7.625 5.265625 C -8.125 5.867188 -8.328125 6.359375 -8.234375 6.734375 C -8.148438 7.117188 -7.753906 7.421875 -7.046875 7.640625 C -5.429688 8.171875 -3.773438 8.222656 -2.078125 7.796875 C -0.941406 7.492188 -0.0703125 6.898438 0.53125 6.015625 C 1.132812 5.128906 1.582031 4.117188 1.875 2.984375 C 2.175781 1.847656 2.410156 0.71875 2.578125 -0.40625 C 2.640625 -0.925781 2.71875 -1.425781 2.8125 -1.90625 Z M 2.8125 -1.90625 "/></g></g><g transform="translate(92.175108, 46.719461)"><g><path d="M 7.515625 -7.328125 C 7.722656 -7.253906 7.78125 -7.007812 7.6875 -6.59375 C 7.507812 -6.25 7.3125 -5.925781 7.09375 -5.625 C 6.882812 -5.332031 6.640625 -5.054688 6.359375 -4.796875 C 6.335938 -4.796875 6.328125 -4.789062 6.328125 -4.78125 C 6.140625 -4.601562 5.945312 -4.441406 5.75 -4.296875 C 3.988281 -3.328125 2.972656 -3.570312 2.703125 -5.03125 C 2.054688 -4.25 1.613281 -3.765625 1.375 -3.578125 C 0.820312 -3.109375 0.179688 -2.835938 -0.546875 -2.765625 C -1.078125 -2.710938 -1.460938 -2.816406 -1.703125 -3.078125 C -1.941406 -3.335938 -1.988281 -3.726562 -1.84375 -4.25 C -1.625 -5.101562 -1.25 -5.894531 -0.71875 -6.625 C -0.09375 -7.425781 0.640625 -8.101562 1.484375 -8.65625 C 1.921875 -8.976562 2.410156 -9.15625 2.953125 -9.1875 C 3.484375 -9.238281 3.851562 -8.992188 4.0625 -8.453125 C 4.132812 -8.285156 4.117188 -8.125 4.015625 -7.96875 C 3.859375 -7.78125 3.660156 -7.707031 3.421875 -7.75 C 3.398438 -7.75 3.375 -7.75 3.34375 -7.75 C 3.320312 -7.757812 3.304688 -7.769531 3.296875 -7.78125 C 3.023438 -8.070312 2.773438 -8.171875 2.546875 -8.078125 C 2.316406 -7.984375 2.085938 -7.835938 1.859375 -7.640625 C 0.773438 -6.742188 0.0390625 -5.617188 -0.34375 -4.265625 C -0.363281 -4.210938 -0.375 -4.148438 -0.375 -4.078125 C -0.375 -4.015625 -0.34375 -3.96875 -0.28125 -3.9375 C -0.132812 -3.914062 0.015625 -3.953125 0.171875 -4.046875 C 0.328125 -4.140625 0.476562 -4.257812 0.625 -4.40625 C 0.78125 -4.5625 0.914062 -4.691406 1.03125 -4.796875 C 1.039062 -4.816406 1.046875 -4.828125 1.046875 -4.828125 C 1.535156 -5.398438 2.007812 -5.984375 2.46875 -6.578125 C 2.664062 -6.878906 2.941406 -7.070312 3.296875 -7.15625 C 3.816406 -7.238281 4.070312 -7.039062 4.0625 -6.5625 C 4.039062 -6.382812 4.015625 -6.207031 3.984375 -6.03125 C 3.898438 -5.257812 3.960938 -4.820312 4.171875 -4.71875 C 4.390625 -4.625 4.679688 -4.671875 5.046875 -4.859375 C 5.410156 -5.054688 5.753906 -5.363281 6.078125 -5.78125 C 6.410156 -6.207031 6.679688 -6.59375 6.890625 -6.9375 C 7.109375 -7.28125 7.316406 -7.410156 7.515625 -7.328125 Z M 7.515625 -7.328125 "/></g></g><g transform="translate(99.93421, 45.459199)"><g/></g><g transform="translate(108.781692, 44.022158)"><g><path d="M 79.703125 -11.6875 C 79.753906 -11.695312 79.804688 -11.707031 79.859375 -11.71875 C 79.972656 -11.738281 80.09375 -11.742188 80.21875 -11.734375 C 80.34375 -11.734375 80.46875 -11.6875 80.59375 -11.59375 C 80.625 -11.570312 80.648438 -11.539062 80.671875 -11.5 C 80.703125 -11.457031 80.722656 -11.40625 80.734375 -11.34375 C 80.722656 -11.3125 80.707031 -11.273438 80.6875 -11.234375 C 80.675781 -11.191406 80.65625 -11.160156 80.625 -11.140625 C 80.476562 -11.078125 80.332031 -11.039062 80.1875 -11.03125 C 80.113281 -11.019531 80.035156 -11.007812 79.953125 -11 C 79.078125 -10.90625 78.207031 -10.820312 77.34375 -10.75 C 75.738281 -10.613281 74.140625 -10.46875 72.546875 -10.3125 C 65.972656 -9.675781 59.507812 -8.859375 53.15625 -7.859375 C 46.8125 -6.867188 40.398438 -5.738281 33.921875 -4.46875 C 33.242188 -4.332031 32.5625 -4.175781 31.875 -4 C 31.238281 -3.84375 30.59375 -3.707031 29.9375 -3.59375 C 29.3125 -3.457031 28.859375 -3.101562 28.578125 -2.53125 C 27.316406 -0.113281 25.898438 2.207031 24.328125 4.4375 C 23.210938 6.007812 22.023438 7.453125 20.765625 8.765625 C 19.503906 10.085938 18.128906 11.191406 16.640625 12.078125 C 15.160156 12.972656 13.554688 13.554688 11.828125 13.828125 C 10.097656 14.097656 8.234375 13.960938 6.234375 13.421875 C 5.296875 13.203125 4.429688 12.789062 3.640625 12.1875 C 2.359375 11.125 2.023438 9.8125 2.640625 8.25 C 3.078125 7.226562 3.722656 6.34375 4.578125 5.59375 C 5.847656 4.414062 7.378906 3.34375 9.171875 2.375 C 10.972656 1.414062 12.898438 0.5625 14.953125 -0.1875 C 17.003906 -0.945312 19.035156 -1.613281 21.046875 -2.1875 C 23.054688 -2.769531 24.894531 -3.257812 26.5625 -3.65625 C 27.238281 -3.8125 27.710938 -4.191406 27.984375 -4.796875 C 29.054688 -7.035156 30.160156 -9.632812 31.296875 -12.59375 C 32.429688 -15.550781 33.476562 -18.640625 34.4375 -21.859375 C 35.40625 -25.078125 36.179688 -28.179688 36.765625 -31.171875 C 37.359375 -34.171875 37.644531 -36.828125 37.625 -39.140625 C 37.625 -39.847656 37.492188 -40.535156 37.234375 -41.203125 C 36.773438 -42.265625 35.984375 -42.78125 34.859375 -42.75 C 34.703125 -42.75 34.554688 -42.738281 34.421875 -42.71875 C 34.097656 -42.664062 33.785156 -42.566406 33.484375 -42.421875 C 32.109375 -41.898438 30.460938 -40.972656 28.546875 -39.640625 C 26.640625 -38.316406 24.664062 -36.726562 22.625 -34.875 C 20.582031 -33.019531 18.660156 -31.046875 16.859375 -28.953125 C 15.054688 -26.859375 13.582031 -24.78125 12.4375 -22.71875 C 11.289062 -20.664062 10.65625 -18.765625 10.53125 -17.015625 C 10.46875 -15.492188 11.15625 -14.507812 12.59375 -14.0625 C 13.75 -13.769531 14.929688 -13.75 16.140625 -14 C 17.347656 -14.257812 18.492188 -14.585938 19.578125 -14.984375 C 20.242188 -15.242188 20.914062 -15.425781 21.59375 -15.53125 C 21.882812 -15.582031 22.175781 -15.613281 22.46875 -15.625 C 22.53125 -15.632812 22.59375 -15.625 22.65625 -15.59375 C 22.726562 -15.5625 22.765625 -15.492188 22.765625 -15.390625 C 22.753906 -15.210938 22.675781 -15.109375 22.53125 -15.078125 C 21.601562 -14.835938 20.664062 -14.554688 19.71875 -14.234375 C 18.582031 -13.835938 17.429688 -13.507812 16.265625 -13.25 C 15.109375 -12.988281 13.9375 -12.925781 12.75 -13.0625 C 12.132812 -13.113281 11.546875 -13.265625 10.984375 -13.515625 C 9.660156 -14.117188 8.988281 -15.15625 8.96875 -16.625 C 9.03125 -18.488281 9.65625 -20.519531 10.84375 -22.71875 C 12.03125 -24.925781 13.578125 -27.140625 15.484375 -29.359375 C 17.390625 -31.578125 19.441406 -33.65625 21.640625 -35.59375 C 23.835938 -37.53125 25.960938 -39.175781 28.015625 -40.53125 C 30.066406 -41.894531 31.835938 -42.828125 33.328125 -43.328125 C 33.691406 -43.460938 34.054688 -43.546875 34.421875 -43.578125 C 35.078125 -43.710938 35.726562 -43.726562 36.375 -43.625 C 37.570312 -43.457031 38.414062 -42.8125 38.90625 -41.6875 C 39.351562 -40.46875 39.472656 -38.726562 39.265625 -36.46875 C 39.054688 -34.21875 38.617188 -31.671875 37.953125 -28.828125 C 37.285156 -25.992188 36.492188 -23.125 35.578125 -20.21875 C 34.671875 -17.3125 33.757812 -14.625 32.84375 -12.15625 C 31.925781 -9.695312 31.113281 -7.703125 30.40625 -6.171875 C 30.21875 -5.753906 30.03125 -5.34375 29.84375 -4.9375 C 29.820312 -4.832031 29.84375 -4.738281 29.90625 -4.65625 C 29.96875 -4.582031 30.054688 -4.554688 30.171875 -4.578125 L 30.203125 -4.578125 C 30.503906 -4.628906 30.8125 -4.6875 31.125 -4.75 C 32.03125 -4.925781 32.9375 -5.113281 33.84375 -5.3125 C 35.738281 -5.71875 37.648438 -6.101562 39.578125 -6.46875 C 52.835938 -9.019531 66.210938 -10.757812 79.703125 -11.6875 Z M 25.765625 -0.625 C 25.835938 -0.75 25.921875 -0.878906 26.015625 -1.015625 C 26.128906 -1.242188 26.257812 -1.492188 26.40625 -1.765625 C 26.550781 -2.035156 26.671875 -2.34375 26.765625 -2.6875 C 26.609375 -2.664062 26.460938 -2.644531 26.328125 -2.625 C 26.273438 -2.613281 26.21875 -2.601562 26.15625 -2.59375 C 26.09375 -2.582031 26.019531 -2.570312 25.9375 -2.5625 C 25.394531 -2.394531 24.847656 -2.234375 24.296875 -2.078125 C 23.585938 -1.878906 22.878906 -1.679688 22.171875 -1.484375 C 20.535156 -1.054688 18.648438 -0.460938 16.515625 0.296875 C 14.378906 1.066406 12.3125 1.96875 10.3125 3 C 8.320312 4.03125 6.726562 5.175781 5.53125 6.4375 C 5.132812 6.894531 4.78125 7.382812 4.46875 7.90625 C 3.582031 9.507812 3.910156 10.804688 5.453125 11.796875 C 7.222656 12.796875 8.945312 13.222656 10.625 13.078125 C 12.300781 12.929688 13.898438 12.375 15.421875 11.40625 C 16.953125 10.4375 18.363281 9.238281 19.65625 7.8125 C 20.957031 6.382812 22.125 4.925781 23.15625 3.4375 C 24.195312 1.945312 25.066406 0.59375 25.765625 -0.625 Z M 25.765625 -0.625 "/></g></g><g transform="translate(147.272922, 37.770268)"><g><path d="M 7.515625 -7.328125 C 7.722656 -7.253906 7.78125 -7.007812 7.6875 -6.59375 C 7.507812 -6.25 7.3125 -5.925781 7.09375 -5.625 C 6.882812 -5.332031 6.640625 -5.054688 6.359375 -4.796875 C 6.335938 -4.796875 6.328125 -4.789062 6.328125 -4.78125 C 6.140625 -4.601562 5.945312 -4.441406 5.75 -4.296875 C 3.988281 -3.328125 2.972656 -3.570312 2.703125 -5.03125 C 2.054688 -4.25 1.613281 -3.765625 1.375 -3.578125 C 0.820312 -3.109375 0.179688 -2.835938 -0.546875 -2.765625 C -1.078125 -2.710938 -1.460938 -2.816406 -1.703125 -3.078125 C -1.941406 -3.335938 -1.988281 -3.726562 -1.84375 -4.25 C -1.625 -5.101562 -1.25 -5.894531 -0.71875 -6.625 C -0.09375 -7.425781 0.640625 -8.101562 1.484375 -8.65625 C 1.921875 -8.976562 2.410156 -9.15625 2.953125 -9.1875 C 3.484375 -9.238281 3.851562 -8.992188 4.0625 -8.453125 C 4.132812 -8.285156 4.117188 -8.125 4.015625 -7.96875 C 3.859375 -7.78125 3.660156 -7.707031 3.421875 -7.75 C 3.398438 -7.75 3.375 -7.75 3.34375 -7.75 C 3.320312 -7.757812 3.304688 -7.769531 3.296875 -7.78125 C 3.023438 -8.070312 2.773438 -8.171875 2.546875 -8.078125 C 2.316406 -7.984375 2.085938 -7.835938 1.859375 -7.640625 C 0.773438 -6.742188 0.0390625 -5.617188 -0.34375 -4.265625 C -0.363281 -4.210938 -0.375 -4.148438 -0.375 -4.078125 C -0.375 -4.015625 -0.34375 -3.96875 -0.28125 -3.9375 C -0.132812 -3.914062 0.015625 -3.953125 0.171875 -4.046875 C 0.328125 -4.140625 0.476562 -4.257812 0.625 -4.40625 C 0.78125 -4.5625 0.914062 -4.691406 1.03125 -4.796875 C 1.039062 -4.816406 1.046875 -4.828125 1.046875 -4.828125 C 1.535156 -5.398438 2.007812 -5.984375 2.46875 -6.578125 C 2.664062 -6.878906 2.941406 -7.070312 3.296875 -7.15625 C 3.816406 -7.238281 4.070312 -7.039062 4.0625 -6.5625 C 4.039062 -6.382812 4.015625 -6.207031 3.984375 -6.03125 C 3.898438 -5.257812 3.960938 -4.820312 4.171875 -4.71875 C 4.390625 -4.625 4.679688 -4.671875 5.046875 -4.859375 C 5.410156 -5.054688 5.753906 -5.363281 6.078125 -5.78125 C 6.410156 -6.207031 6.679688 -6.59375 6.890625 -6.9375 C 7.109375 -7.28125 7.316406 -7.410156 7.515625 -7.328125 Z M 7.515625 -7.328125 "/></g></g><g transform="translate(155.032023, 36.510005)"><g><path d="M 3.84375 -5.6875 C 3.507812 -5.125 3.085938 -4.585938 2.578125 -4.078125 C 2.078125 -3.578125 1.484375 -3.195312 0.796875 -2.9375 C 0.109375 -2.675781 -0.453125 -2.632812 -0.890625 -2.8125 C -1.335938 -3 -1.503906 -3.539062 -1.390625 -4.4375 C -1.234375 -5.382812 -0.953125 -6.300781 -0.546875 -7.1875 C -0.441406 -7.382812 -0.273438 -7.535156 -0.046875 -7.640625 C 0.117188 -7.710938 0.269531 -7.707031 0.40625 -7.625 C 0.550781 -7.550781 0.625 -7.4375 0.625 -7.28125 C 0.550781 -6.96875 0.460938 -6.660156 0.359375 -6.359375 C 0.265625 -6.066406 0.207031 -5.867188 0.1875 -5.765625 C -0.0078125 -5.234375 -0.117188 -4.6875 -0.140625 -4.125 C -0.0859375 -3.800781 0.328125 -3.84375 1.109375 -4.25 C 1.898438 -4.664062 2.628906 -5.300781 3.296875 -6.15625 C 3.972656 -7.007812 4.316406 -7.285156 4.328125 -6.984375 C 4.347656 -6.679688 4.1875 -6.25 3.84375 -5.6875 Z M 1.171875 -9.28125 C 1.128906 -9.238281 1.050781 -9.1875 0.9375 -9.125 C 0.832031 -9.0625 0.710938 -9.003906 0.578125 -8.953125 C 0.453125 -8.910156 0.34375 -8.914062 0.25 -8.96875 C 0.15625 -9.03125 0.132812 -9.15625 0.1875 -9.34375 C 0.238281 -9.695312 0.316406 -10.003906 0.421875 -10.265625 C 0.523438 -10.523438 0.660156 -10.828125 0.828125 -11.171875 C 0.953125 -11.328125 1.09375 -11.425781 1.25 -11.46875 C 1.40625 -11.507812 1.546875 -11.488281 1.671875 -11.40625 C 1.804688 -11.332031 1.859375 -11.203125 1.828125 -11.015625 C 1.753906 -10.367188 1.535156 -9.789062 1.171875 -9.28125 Z M 1.171875 -9.28125 "/></g></g><g transform="translate(159.596201, 35.768675)"><g><path d="M 4.6875 -6.859375 C 3.53125 -6.203125 2.703125 -5.679688 2.203125 -5.296875 C 1.847656 -5.035156 1.648438 -4.835938 1.609375 -4.703125 C 1.566406 -4.566406 1.648438 -4.332031 1.859375 -4 C 1.867188 -3.988281 1.882812 -3.972656 1.90625 -3.953125 C 2.15625 -3.578125 2.332031 -3.160156 2.4375 -2.703125 C 2.632812 -1.816406 1.972656 -1.066406 0.453125 -0.453125 C -1.066406 0.160156 -2.125 0.34375 -2.71875 0.09375 C -3.3125 -0.15625 -3.546875 -0.550781 -3.421875 -1.09375 C -3.304688 -1.644531 -2.859375 -2.253906 -2.078125 -2.921875 C -1.296875 -3.597656 -0.78125 -4.078125 -0.53125 -4.359375 C -0.28125 -4.640625 -0.226562 -4.921875 -0.375 -5.203125 C -0.4375 -5.285156 -0.5 -5.367188 -0.5625 -5.453125 C -0.695312 -5.691406 -0.84375 -5.929688 -1 -6.171875 C -1.28125 -6.597656 -1.441406 -7.039062 -1.484375 -7.5 C -1.523438 -7.957031 -1.414062 -8.363281 -1.15625 -8.71875 C -0.90625 -9.070312 -0.457031 -9.316406 0.1875 -9.453125 C 0.539062 -9.523438 0.867188 -9.53125 1.171875 -9.46875 C 1.484375 -9.40625 1.75 -9.238281 1.96875 -8.96875 C 2.15625 -8.769531 2.148438 -8.566406 1.953125 -8.359375 C 1.804688 -8.222656 1.648438 -8.179688 1.484375 -8.234375 C 1.359375 -8.265625 1.238281 -8.3125 1.125 -8.375 C 1.113281 -8.40625 1.109375 -8.421875 1.109375 -8.421875 C 1.066406 -8.453125 1.023438 -8.476562 0.984375 -8.5 C 0.921875 -8.550781 0.859375 -8.59375 0.796875 -8.625 C 0.566406 -8.75 0.351562 -8.765625 0.15625 -8.671875 C -0.0390625 -8.578125 -0.171875 -8.390625 -0.234375 -8.109375 C -0.265625 -7.898438 -0.265625 -7.691406 -0.234375 -7.484375 C -0.171875 -7.222656 -0.0664062 -6.976562 0.078125 -6.75 C 0.160156 -6.625 0.242188 -6.503906 0.328125 -6.390625 C 0.515625 -6.054688 0.660156 -5.832031 0.765625 -5.71875 C 0.867188 -5.601562 0.976562 -5.566406 1.09375 -5.609375 C 1.21875 -5.648438 2.265625 -6.226562 4.234375 -7.34375 C 4.648438 -7.5625 4.800781 -7.398438 4.6875 -6.859375 Z M 0.359375 -1.5625 C 0.878906 -1.84375 1.046875 -2.242188 0.859375 -2.765625 C 0.859375 -2.804688 0.847656 -2.851562 0.828125 -2.90625 C 0.742188 -3.1875 0.640625 -3.398438 0.515625 -3.546875 C 0.398438 -3.691406 0.195312 -3.65625 -0.09375 -3.4375 C -0.832031 -2.84375 -1.492188 -2.179688 -2.078125 -1.453125 C -2.109375 -1.398438 -2.144531 -1.34375 -2.1875 -1.28125 C -2.1875 -1.28125 -2.191406 -1.269531 -2.203125 -1.25 C -2.234375 -1.175781 -2.226562 -1.101562 -2.1875 -1.03125 C -2.144531 -0.957031 -2.078125 -0.929688 -1.984375 -0.953125 C -1.148438 -0.953125 -0.367188 -1.15625 0.359375 -1.5625 Z M 0.359375 -1.5625 "/></g></g><g transform="translate(164.780638, 34.926599)"><g><path d="M 9 -11.859375 C 9.09375 -11.867188 9.179688 -11.84375 9.265625 -11.78125 C 9.359375 -11.71875 9.394531 -11.644531 9.375 -11.5625 C 9.34375 -11.414062 9.300781 -11.273438 9.25 -11.140625 C 8.4375 -9.054688 7.4375 -7.066406 6.25 -5.171875 C 5.957031 -4.671875 5.617188 -4.195312 5.234375 -3.75 C 5.046875 -3.53125 4.828125 -3.347656 4.578125 -3.203125 C 4.109375 -2.898438 3.71875 -2.832031 3.40625 -3 C 3.101562 -3.164062 2.925781 -3.515625 2.875 -4.046875 C 2.875 -4.128906 2.878906 -4.21875 2.890625 -4.3125 C 2.878906 -4.445312 2.867188 -4.582031 2.859375 -4.71875 C 2.847656 -4.863281 2.800781 -5.019531 2.71875 -5.1875 C 2.539062 -4.96875 2.378906 -4.757812 2.234375 -4.5625 C 1.878906 -4.113281 1.550781 -3.6875 1.25 -3.28125 C 0.882812 -2.832031 0.414062 -2.609375 -0.15625 -2.609375 C -0.550781 -2.617188 -0.8125 -2.796875 -0.9375 -3.140625 C -1.019531 -3.429688 -1.066406 -3.726562 -1.078125 -4.03125 C -1.128906 -5.332031 -1.007812 -6.625 -0.71875 -7.90625 C -0.675781 -8.101562 -0.597656 -8.273438 -0.484375 -8.421875 C -0.335938 -8.640625 -0.128906 -8.726562 0.140625 -8.6875 C 0.410156 -8.625 0.539062 -8.445312 0.53125 -8.15625 C 0.53125 -7.914062 0.515625 -7.671875 0.484375 -7.421875 C 0.484375 -7.328125 0.476562 -7.238281 0.46875 -7.15625 C 0.382812 -6.375 0.332031 -5.773438 0.3125 -5.359375 C 0.300781 -4.953125 0.3125 -4.675781 0.34375 -4.53125 C 0.382812 -4.382812 0.4375 -4.335938 0.5 -4.390625 C 0.769531 -4.585938 0.988281 -4.816406 1.15625 -5.078125 C 1.332031 -5.347656 1.5 -5.613281 1.65625 -5.875 C 1.78125 -6.125 1.910156 -6.375 2.046875 -6.625 C 2.210938 -6.863281 2.367188 -7.097656 2.515625 -7.328125 C 2.628906 -7.554688 2.757812 -7.773438 2.90625 -7.984375 C 3.019531 -8.191406 3.171875 -8.367188 3.359375 -8.515625 C 3.617188 -8.691406 3.898438 -8.722656 4.203125 -8.609375 C 4.328125 -8.546875 4.410156 -8.457031 4.453125 -8.34375 C 4.492188 -8.226562 4.503906 -8.109375 4.484375 -7.984375 C 4.453125 -7.515625 4.425781 -7.03125 4.40625 -6.53125 C 4.394531 -6.300781 4.375 -6.066406 4.34375 -5.828125 C 4.332031 -5.628906 4.328125 -5.429688 4.328125 -5.234375 C 4.328125 -5.160156 4.335938 -5.09375 4.359375 -5.03125 C 4.390625 -4.96875 4.441406 -4.9375 4.515625 -4.9375 C 4.566406 -4.925781 4.609375 -4.929688 4.640625 -4.953125 C 4.671875 -4.972656 4.707031 -5.003906 4.75 -5.046875 C 4.9375 -5.265625 5.097656 -5.503906 5.234375 -5.765625 C 5.523438 -6.273438 5.816406 -6.796875 6.109375 -7.328125 C 6.316406 -7.742188 6.53125 -8.160156 6.75 -8.578125 C 7.238281 -9.472656 7.738281 -10.359375 8.25 -11.234375 C 8.40625 -11.566406 8.65625 -11.773438 9 -11.859375 Z M 9 -11.859375 "/></g></g><g transform="translate(174.295193, 33.381209)"><g><path d="M 7.515625 -7.328125 C 7.722656 -7.253906 7.78125 -7.007812 7.6875 -6.59375 C 7.507812 -6.25 7.3125 -5.925781 7.09375 -5.625 C 6.882812 -5.332031 6.640625 -5.054688 6.359375 -4.796875 C 6.335938 -4.796875 6.328125 -4.789062 6.328125 -4.78125 C 6.140625 -4.601562 5.945312 -4.441406 5.75 -4.296875 C 3.988281 -3.328125 2.972656 -3.570312 2.703125 -5.03125 C 2.054688 -4.25 1.613281 -3.765625 1.375 -3.578125 C 0.820312 -3.109375 0.179688 -2.835938 -0.546875 -2.765625 C -1.078125 -2.710938 -1.460938 -2.816406 -1.703125 -3.078125 C -1.941406 -3.335938 -1.988281 -3.726562 -1.84375 -4.25 C -1.625 -5.101562 -1.25 -5.894531 -0.71875 -6.625 C -0.09375 -7.425781 0.640625 -8.101562 1.484375 -8.65625 C 1.921875 -8.976562 2.410156 -9.15625 2.953125 -9.1875 C 3.484375 -9.238281 3.851562 -8.992188 4.0625 -8.453125 C 4.132812 -8.285156 4.117188 -8.125 4.015625 -7.96875 C 3.859375 -7.78125 3.660156 -7.707031 3.421875 -7.75 C 3.398438 -7.75 3.375 -7.75 3.34375 -7.75 C 3.320312 -7.757812 3.304688 -7.769531 3.296875 -7.78125 C 3.023438 -8.070312 2.773438 -8.171875 2.546875 -8.078125 C 2.316406 -7.984375 2.085938 -7.835938 1.859375 -7.640625 C 0.773438 -6.742188 0.0390625 -5.617188 -0.34375 -4.265625 C -0.363281 -4.210938 -0.375 -4.148438 -0.375 -4.078125 C -0.375 -4.015625 -0.34375 -3.96875 -0.28125 -3.9375 C -0.132812 -3.914062 0.015625 -3.953125 0.171875 -4.046875 C 0.328125 -4.140625 0.476562 -4.257812 0.625 -4.40625 C 0.78125 -4.5625 0.914062 -4.691406 1.03125 -4.796875 C 1.039062 -4.816406 1.046875 -4.828125 1.046875 -4.828125 C 1.535156 -5.398438 2.007812 -5.984375 2.46875 -6.578125 C 2.664062 -6.878906 2.941406 -7.070312 3.296875 -7.15625 C 3.816406 -7.238281 4.070312 -7.039062 4.0625 -6.5625 C 4.039062 -6.382812 4.015625 -6.207031 3.984375 -6.03125 C 3.898438 -5.257812 3.960938 -4.820312 4.171875 -4.71875 C 4.390625 -4.625 4.679688 -4.671875 5.046875 -4.859375 C 5.410156 -5.054688 5.753906 -5.363281 6.078125 -5.78125 C 6.410156 -6.207031 6.679688 -6.59375 6.890625 -6.9375 C 7.109375 -7.28125 7.316406 -7.410156 7.515625 -7.328125 Z M 7.515625 -7.328125 "/></g></g><g transform="translate(182.054294, 32.120947)"><g><path d="M 4.75 -6.5 C 4.96875 -6.800781 5.160156 -6.976562 5.328125 -7.03125 C 5.492188 -7.09375 5.609375 -7.082031 5.671875 -7 C 5.742188 -6.925781 5.734375 -6.804688 5.640625 -6.640625 C 5.078125 -5.703125 4.421875 -4.863281 3.671875 -4.125 C 2.929688 -3.394531 2.117188 -2.90625 1.234375 -2.65625 C 0.347656 -2.414062 -0.28125 -2.820312 -0.65625 -3.875 C -0.96875 -4.914062 -0.671875 -7.191406 0.234375 -10.703125 C 1.140625 -14.222656 1.835938 -17.097656 2.328125 -19.328125 C 2.359375 -19.523438 2.4375 -19.710938 2.5625 -19.890625 C 2.71875 -20.109375 2.9375 -20.1875 3.21875 -20.125 C 3.300781 -20.101562 3.390625 -20.054688 3.484375 -19.984375 C 3.585938 -19.910156 3.640625 -19.765625 3.640625 -19.546875 C 1.378906 -10.191406 0.367188 -5.140625 0.609375 -4.390625 C 0.847656 -3.640625 1.367188 -3.523438 2.171875 -4.046875 C 2.984375 -4.578125 3.59375 -5.082031 4 -5.5625 C 4.40625 -6.039062 4.65625 -6.351562 4.75 -6.5 Z M 4.75 -6.5 "/></g></g></g></g></g></g></g><g clip-path="url(#74a7e1211e)"><g clip-path="url(#02744ef505)"><g transform="matrix(1, 0, 0, 1, 193, 31)"><g clip-path="url(#fcf2e12ea8)"><g clip-path="url(#7965d01830)"><g clip-path="url(#c5f6230f5e)"><path fill="#5170ff" d="M 0.226562 0.371094 L 2.972656 0.371094 L 2.972656 3.117188 L 0.226562 3.117188 Z M 0.226562 0.371094 " fill-opacity="1" fill-rule="nonzero"/></g></g></g></g></g></g><g clip-path="url(#83bc404d80)"><g clip-path="url(#3013ec04f0)"><g transform="matrix(1, 0, 0, 1, 199, 30)"><g clip-path="url(#3506883da9)"><g clip-path="url(#71c44e5823)"><g clip-path="url(#5244be4e05)"><path fill="#5170ff" d="M 0.113281 0.707031 L 2.859375 0.707031 L 2.859375 3.453125 L 0.113281 3.453125 Z M 0.113281 0.707031 " fill-opacity="1" fill-rule="nonzero"/></g></g></g></g></g></g></g></g></svg>